<?xml version="1.0" standalone="no"?>
<!DOCTYPE svg PUBLIC "-//W3C//DTD SVG 20010904//EN"
 "http://www.w3.org/TR/2001/REC-SVG-20010904/DTD/svg10.dtd">
<svg version="1.0" xmlns="http://www.w3.org/2000/svg"
 width="225.000000pt" height="225.000000pt" viewBox="0 0 225.000000 225.000000"
 preserveAspectRatio="xMidYMid meet">
<metadata>
Created by potrace 1.15, written by Peter Selinger 2001-2017
</metadata>
<g transform="translate(0.000000,225.000000) scale(0.100000,-0.100000)"
fill="#000000" stroke="none">
<path d="M493 2020 c-4 -15 -10 -19 -22 -14 -45 20 -116 -14 -116 -56 0 -18 9
-25 43 -36 56 -16 75 -34 130 -119 25 -38 50 -73 56 -77 6 -4 29 -8 51 -8 37
0 46 -6 128 -92 66 -68 91 -88 97 -78 5 8 7 17 5 20 -2 4 9 14 26 24 16 9 27
21 24 27 -3 5 2 6 12 2 10 -3 -1 14 -24 38 -23 24 -62 65 -87 92 -30 30 -46
56 -46 72 0 17 -10 31 -30 44 -27 16 -29 20 -15 31 17 14 11 30 -11 30 -8 0
-14 -7 -14 -15 0 -17 -9 -19 -29 -6 -9 6 -10 11 -2 15 18 12 13 38 -6 34 -10
-2 -17 -10 -15 -16 1 -7 -4 -12 -11 -12 -21 0 -28 12 -16 26 11 14 4 34 -12
34 -5 0 -13 -9 -17 -20 -5 -13 -11 -17 -21 -10 -12 7 -13 11 -1 25 9 11 10 19
2 27 -12 12 -32 2 -32 -17 0 -9 -6 -12 -15 -9 -10 4 -13 14 -9 29 3 13 0 26
-6 30 -7 4 -14 -2 -17 -15z"/>
<path d="M1735 2030 c-4 -6 -1 -18 6 -26 10 -13 10 -17 -2 -25 -21 -13 -27
-11 -25 7 0 9 -5 19 -11 21 -18 6 -29 -27 -13 -37 9 -6 7 -11 -9 -19 -18 -10
-21 -9 -21 9 0 11 -7 20 -15 20 -17 0 -21 -36 -5 -42 6 -2 1 -9 -10 -16 -18
-11 -20 -10 -20 8 0 11 -6 20 -14 20 -21 0 -30 -18 -17 -34 6 -7 8 -16 4 -19
-11 -12 -23 -8 -23 8 0 8 -9 15 -20 15 -22 0 -26 -20 -8 -38 9 -9 9 -12 0 -12
-20 0 -52 -39 -52 -63 0 -15 -27 -49 -80 -102 -44 -44 -80 -84 -80 -89 0 -5 3
-7 6 -3 3 3 24 -12 47 -34 l40 -40 86 85 c72 72 92 86 118 86 51 0 62 9 118
96 51 79 56 83 115 105 51 18 60 26 58 43 -2 12 -20 30 -46 45 -35 19 -48 21
-67 13 -19 -9 -24 -8 -28 9 -6 21 -22 25 -32 9z"/>
<path d="M1031 1615 c-81 -18 -138 -55 -158 -103 -15 -35 -15 -43 6 -122 24
-96 104 -266 151 -323 69 -81 122 -84 193 -8 82 88 185 339 174 423 -9 69 -72
117 -182 137 -73 14 -104 13 -184 -4z"/>
<path d="M645 1312 c-43 -26 -81 -74 -117 -146 -17 -34 -46 -85 -65 -114 -36
-57 -69 -76 -258 -153 -187 -75 -241 -211 -154 -388 46 -93 179 -225 274 -272
136 -66 235 -41 314 81 21 32 53 100 71 150 47 130 59 144 175 204 104 53 145
93 145 143 0 33 -24 39 -63 14 -49 -30 -104 -28 -139 6 -15 15 -28 34 -28 44
0 9 42 61 93 115 53 57 87 99 79 102 -6 2 -10 8 -7 13 4 5 -1 6 -9 3 -10 -4
-20 3 -27 20 -7 14 -16 23 -22 19 -6 -3 -7 -1 -3 5 4 6 13 9 21 6 8 -4 12 -11
8 -17 -3 -6 -1 -7 5 -3 9 6 2 28 -25 75 -2 2 -39 -32 -83 -75 -45 -43 -87 -80
-95 -82 -8 -2 -26 8 -40 22 -43 43 -31 110 31 178 19 22 33 45 31 51 -6 20
-79 19 -112 -1z m40 -288 c14 -6 12 -11 -11 -35 -15 -16 -33 -29 -40 -29 -6 0
-17 -7 -24 -15 -10 -12 -10 -18 0 -30 11 -13 8 -21 -20 -50 -26 -26 -37 -32
-47 -24 -23 20 -46 2 -40 -30 8 -38 -24 -71 -48 -51 -13 11 -19 11 -32 -3 -15
-14 -15 -18 1 -42 14 -21 15 -29 5 -41 -17 -21 -25 -8 -8 13 13 16 12 17 -4 4
-15 -12 -20 -11 -37 4 -17 15 -24 16 -45 7 -24 -11 -25 -10 -25 23 0 51 33 82
151 139 91 45 109 58 147 109 45 59 49 61 77 51z m60 -214 c13 11 20 9 43 -13
15 -14 39 -30 55 -36 39 -15 34 -27 -23 -56 -55 -28 -64 -30 -54 -14 12 19
-29 -7 -51 -33 l-20 -23 26 23 c38 33 45 27 11 -12 -16 -18 -42 -67 -57 -107
-47 -126 -66 -167 -85 -184 -26 -23 -36 -14 -54 49 -9 29 -24 64 -34 77 -18
21 -18 25 -3 50 14 25 14 29 -3 48 -15 17 -16 23 -6 36 9 11 17 12 32 4 29
-15 58 12 38 36 -20 24 13 56 51 48 33 -6 49 17 29 43 -11 12 -8 20 20 49 31
32 35 34 52 18 15 -13 20 -14 33 -3z m-374 -136 c11 -14 10 -19 -9 -34 -12
-10 -22 -21 -22 -24 0 -8 69 -76 78 -76 4 0 13 10 21 23 10 17 11 19 0 10 -19
-19 -34 -16 -18 3 12 15 11 16 -8 10 -26 -8 -39 9 -22 30 17 21 25 8 8 -13
-13 -16 -12 -17 3 -5 12 10 21 11 30 3 7 -6 24 -20 38 -30 25 -19 25 -19 6
-40 -11 -12 -31 -27 -45 -34 -14 -7 -36 -20 -48 -27 -21 -14 -26 -11 -73 35
-27 27 -50 55 -50 63 0 20 36 63 45 54 5 -4 5 -1 1 6 -5 8 1 23 15 38 27 28
32 29 50 8z"/>
<path d="M1503 1314 c-3 -9 6 -28 24 -47 42 -44 53 -69 53 -119 0 -49 -14 -73
-48 -83 -19 -5 -36 6 -102 71 -44 43 -82 76 -84 73 -18 -20 -24 -47 -13 -58 9
-10 8 -11 -8 -5 -18 7 -19 6 -6 -9 12 -15 12 -17 -4 -11 -12 5 -16 4 -12 -3 4
-6 0 -13 -8 -17 -8 -3 -15 -10 -15 -16 0 -6 41 -53 90 -104 50 -51 90 -100 90
-109 0 -8 -14 -27 -31 -41 -38 -33 -87 -34 -140 -4 -36 20 -41 20 -55 6 -14
-13 -14 -19 -1 -49 21 -50 62 -83 160 -129 98 -47 103 -53 158 -203 39 -105
68 -155 118 -200 109 -99 252 -63 422 105 54 54 88 98 111 145 30 61 33 76 33
154 0 77 -3 90 -28 127 -35 53 -76 79 -229 142 -70 30 -136 64 -154 81 -17 17
-53 71 -79 122 -60 114 -95 160 -139 181 -44 21 -95 21 -103 0z m135 -326 c44
-64 69 -83 162 -126 55 -25 97 -52 118 -76 43 -49 44 -110 1 -83 -14 9 -22 7
-38 -7 -27 -25 -54 -6 -45 31 8 29 -11 46 -37 33 -21 -12 -53 21 -45 47 15 49
-31 53 -78 6 l-27 -26 -31 29 -32 29 29 -40 28 -40 -36 35 c-32 29 -35 35 -21
43 11 7 24 1 47 -19 l32 -29 -31 35 -32 35 24 25 c31 32 31 58 0 66 -13 3 -35
17 -47 30 -20 21 -21 26 -9 34 26 17 38 11 68 -32z m-94 -176 c14 8 25 4 52
-23 19 -19 30 -35 24 -37 -5 -2 -10 -15 -10 -29 0 -23 3 -25 33 -19 26 5 38 2
51 -13 11 -12 14 -21 7 -26 -17 -10 -13 -42 5 -49 9 -4 23 -1 31 5 11 10 18 9
30 -4 15 -15 15 -18 0 -35 -21 -23 -22 -46 -2 -62 13 -11 12 -16 -10 -42 -14
-16 -27 -42 -30 -56 -9 -42 -29 -77 -45 -77 -17 0 -54 69 -93 177 -15 42 -39
93 -53 113 -17 26 -20 36 -10 32 23 -9 19 0 -5 14 -15 8 -19 8 -15 0 10 -15 7
-14 -54 17 -29 15 -55 32 -57 39 -3 7 13 21 35 32 21 11 44 27 51 35 9 11 18
13 30 7 10 -6 24 -5 35 1z m391 -144 c9 -13 27 -41 41 -62 l25 -39 -52 -53
c-30 -30 -57 -54 -62 -54 -4 0 -22 10 -40 22 -85 60 -96 82 -46 100 19 7 28
15 25 24 -8 20 -2 17 20 -8 19 -21 19 -21 0 -14 -16 5 -17 4 -6 -9 15 -18 0
-20 -19 -2 -11 9 -10 7 0 -10 8 -13 16 -23 19 -23 3 0 23 18 45 40 l38 39 -27
22 c-21 17 -24 24 -15 35 17 20 36 17 54 -8z"/>
</g>
</svg>
